# xmcd
#
# Track frame offsets:
# 150
# 19355
# 40640
# 59410
# 84910
# 105005
#
# Disc length: 1666 seconds
#
# Revision: 1
# Processed by: cddbd v1.4PL0 Copyright (c) Steve Scherf et al.
# Submitted via: Axialis_AX_CDPlayer 2.6
#
DISCID=39068006
DTITLE=Damage - Forever Bonus CD
DYEAR=1900
DGENRE=
TTITLE0=Wonderful Tonight (Acoustic Mix)
TTITLE1=Love II Love (Acoustic Mix)
TTITLE2=Love Guaranteed (M Doc Mix)
TTITLE3=Forever (Linslee Mix)
TTITLE4=Just My Imagination (Previously Unreleased)
TTITLE5=Wonderful Tonight (Ethnic Boyz Mix)
EXTD=
EXTT0=
EXTT1=
EXTT2=
EXTT3=
EXTT4=
EXTT5=
PLAYORDER=
